<svg width="1536" height="1536" viewBox="0 0 1536 1536" xmlns="http://www.w3.org/2000/svg">
<defs>
  <style>
    #Flash {
      fill: #FFB200;
    }
    #Sun {
      fill: #FFB200;
    }
    #Sun-fill {
			fill: #FFB200;
			fill-opacity:0.5;
		}
	#Moon {
		 fill: #626262;
		}
	#Moon-fill {
			fill: #626262;
			fill-opacity:0.5;
		}
	#Cloud {
			fill: #9B9B9B;
		}
    #Cloud-fill {
      fill: #CFCFCF;
      fill-opacity:0.5;
    }
	#Cloud-fill-light {
			fill: #F9FCFE;
		}
	#Rain {
			fill: #008FE9;
		}
	#Snow{
			fill: #9B9B9B;
		}
    #Mist{
			fill: #9B9B9B;
		}
  </style>
</defs>

  <g id="Sun-fill">
  	<path class="st1" d="M913.3,911.3c-38.8,38.9-90.4,60.2-145.3,60.2s-106.5-21.4-145.3-60.2c-38.8-38.9-60.2-90.4-60.2-145.3
  		s21.4-106.5,60.2-145.3c38.9-38.8,90.4-60.2,145.3-60.2s106.5,21.4,145.3,60.2c38.8,38.9,60.2,90.4,60.2,145.3
  		S952.2,872.5,913.3,911.3z"/>
  </g>
  <g id="Sun">
  	<path class="st1" d="M768,492c-152.4,0-276,123.6-276,276s123.6,276,276,276s276-123.6,276-276S920.4,492,768,492z M912.2,912.2
  		C873.7,950.8,822.5,972,768,972s-105.7-21.2-144.2-59.8S564,822.5,564,768s21.2-105.7,59.8-144.2S713.5,564,768,564
  		s105.7,21.2,144.2,59.8S972,713.5,972,768S950.8,873.7,912.2,912.2z"/>
  	<path class="st1" d="M770.5,419.9c19-1.3,33.5-17.6,33.5-36.6V192.7c0-19.1-14.5-35.3-33.5-36.6c-20.9-1.4-38.5,15.3-38.5,35.9v192
  		C732,404.6,749.6,421.3,770.5,419.9z"/>
  	<path class="st1" d="M768,1116c-19.8,0-36,16.2-36,36v192c0,19.8,16.2,36,36,36s36-16.2,36-36v-192C804,1132.2,787.8,1116,768,1116
  		z"/>
  	<path class="st1" d="M1344,732h-192c-19.8,0-36,16.2-36,36s16.2,36,36,36h192c19.8,0,36-16.2,36-36S1363.8,732,1344,732z"/>
  	<path class="st1" d="M420,768c0-19.8-16.2-36-36-36H192c-19.8,0-36,16.2-36,36s16.2,36,36,36h192C403.8,804,420,787.8,420,768z"/>
  	<path class="st1" d="M471,521.9c7,7,16.2,10.5,25.5,10.5c9.2,0,18.5-3.5,25.5-10.5l0,0c14-14,14-36.9,0-50.9L386.2,335.3
  		c-7-7-16.2-10.5-25.5-10.5c-9.2,0-18.5,3.5-25.5,10.5l0,0c-14,14-14,36.9,0,50.9L471,521.9z"/>
  	<path class="st1" d="M1065,1014.1c-7-7-16.2-10.5-25.5-10.5c-9.2,0-18.5,3.5-25.5,10.5c-14,14-14,36.9,0,50.9l135.8,135.8
  		c7,7,16.2,10.5,25.5,10.5c9.2,0,18.5-3.5,25.5-10.5c14-14,14-36.9,0-50.9L1065,1014.1z"/>
  	<path class="st1" d="M1014.1,521.9c7,7,16.2,10.5,25.5,10.5c9.2,0,18.5-3.5,25.5-10.5l135.8-135.8c14-14,14-36.9,0-50.9l0,0
  		c-7-7-16.2-10.5-25.5-10.5c-9.2,0-18.5,3.5-25.5,10.5L1014.1,471C1000.1,485,1000.1,507.9,1014.1,521.9L1014.1,521.9z"/>
  	<path class="st1" d="M521.9,1014.1c-7-7-16.2-10.5-25.5-10.5s-18.5,3.5-25.5,10.5l-135.8,135.8c-14,14-14,36.9,0,50.9l0,0
  		c7,7,16.2,10.5,25.5,10.5s18.5-3.5,25.5-10.5L521.9,1065C535.9,1051,535.9,1028.1,521.9,1014.1L521.9,1014.1z"/>
  </g>
</svg>