<svg width="1536" height="1536" viewBox="0 0 1536 1536" xmlns="http://www.w3.org/2000/svg">
<defs>
  <style>
    #Flash {
      fill: #FFB200;
    }
    #Sun {
      fill: #FFB200;
    }
    #Sun-fill {
			fill: #FFB200;
			fill-opacity:0.5;
		}
	#Moon {
		 fill: #626262;
		}
	#Moon-fill {
			fill: #626262;
			fill-opacity:0.5;
		}
	#Cloud {
			fill: #9B9B9B;
		}
    #Cloud-fill {
      fill: #CFCFCF;
      fill-opacity:0.5;
    }
	#Cloud-fill-light {
			fill: #F9FCFE;
		}
	#Rain {
			fill: #008FE9;
		}
	#Snow{
			fill: #9B9B9B;
		}
    #Mist{
			fill: #9B9B9B;
		}
  </style>
</defs>
<g id="Sun">
	<polygon points="608,826 557.1,919.1 464,970 557.1,1020.9 608,1114 658.9,1020.9 752,970 658.9,919.1 	"/>
	<polygon points="768,417.9 717.1,511 624,561.9 717.1,612.9 768,706 818.9,612.9 912,561.9 818.9,511 	"/>
	<polygon points="1152,730 1101.1,823.1 1008,874 1101.1,924.9 1152,1018 1202.9,924.9 1296,874 1202.9,823.1 	"/>
</g>
<path id="Moon-fill" d="M1232,465.9c-93.7,0-170-76.3-170-170c0-27.1,6.2-53.1,18.5-77.1c11.7-22.9,28.8-43.3,49.4-58.8l15.7-11.9
	l0.3,19.7c1,57.7,24,112.1,65,153.1c39.2,39.2,91.2,62.2,146.5,64.8l19.5,0.9l-12.2,15.3C1332.4,442.5,1284,465.9,1232,465.9z"/>
<path id="Moon" class="st2" d="M1464,291.9c-21.2,16-46.6,26.8-74.2,30.6c-7.1,1-14.4,1.5-21.8,1.5c-88.2,0-160-71.8-160-160
	c0-9,0.8-17.9,2.2-26.5c4.6-27.4,16.1-52.4,32.8-73.2c-3.6-0.2-7.3-0.3-11-0.3c-27.6,0-54.4,4.8-79.6,14
	c-31.4,11.4-60.1,29.7-84.5,54c-43.8,43.8-67.9,102.1-67.9,164s24.1,120.2,67.9,164s102.1,68,164.1,68s120.2-24.1,164.1-68
	c22.6-22.6,40-49.1,51.5-78c10.8-27,16.4-56.1,16.4-86C1464,294.5,1464,293.2,1464,291.9z M1232,455.9c-88.2,0-160-71.8-160-160
	c0-52.2,25.2-98.7,64-128c1,60.5,25.1,117.1,67.9,160c41.2,41.2,95.2,65,153.1,67.7C1327.7,432.4,1282.5,455.9,1232,455.9z"/>
</svg>