<svg width="1536" height="1536" viewBox="0 0 1536 1536" xmlns="http://www.w3.org/2000/svg">
<defs>
  <style>
    #Flash {
      fill: #FFB200;
    }
    #Sun {
      fill: #FFB200;
    }
    #Sun-fill {
			fill: #FFB200;
			fill-opacity:0.5;
		}
	#Moon {
		 fill: #626262;
		}
	#Moon-fill {
			fill: #626262;
			fill-opacity:0.5;
		}
	#Cloud {
			fill: #9B9B9B;
		}
    #Cloud-fill {
      fill: #CFCFCF;
      fill-opacity:0.5;
    }
	#Cloud-fill-light {
			fill: #F9FCFE;
		}
	#Rain {
			fill: #008FE9;
		}
	#Snow{
			fill: #9B9B9B;
		}
    #Mist{
			fill: #9B9B9B;
		}
  </style>
</defs>
  <g id="Cloud-fill-light">
    <path class="st1" d="M456,1090c-45.5,0-88.1-17.7-120.2-49.8c-32.1-32-49.8-74.7-49.8-120.2s17.7-88.1,49.8-120.2
      c32-32.1,74.7-49.8,120.2-49.8h3.2c23.9,0.4,47.3,5.9,68.7,15.9c-4.7-16-7.7-32.3-9.1-49h-1.5l0.6-27.4
      c1.7-65.5,28.4-126.7,75.2-172.4c47.1-45.8,109.1-71,174.8-71c3.6,0,7.2,0.1,10.7,0.2h0.2c61.4,2.6,119.5,27.8,163.8,70.8
      c46.9,45.9,73.7,107.1,75.2,172.4l0.4,17l-7.1,2.3c-36.5,11.9-69.5,33.2-95.5,61.8c-2.3,2.5-4.1,5.4-5.2,8.6v0.1
      c-3.4,9.4-1,20,6.1,27.1c4.9,4.9,11.4,7.6,18.4,7.6c7.4,0,14.2-3,19.2-8.5c3.1-3.4,6.4-6.7,8.7-8.9c5-4.8,10-9,15.2-12.8
      c28.4-21.4,63.8-33.4,99.4-34h7.5c0.7,0,1.6,0,2.7,0.1c0.3,0,0.7,0,1,0.1c0.1,0,0.3,0,0.4,0l0,0c0.5,0,1.1,0,1.7,0.1h0.3
      c0.7,0,1.3,0,1.7,0.1h0.3h0.6l0.7,0.1c0.1,0,0.2,0,0.3,0c0.4,0,0.9,0.1,1.6,0.2c0.1,0,0.2,0,0.3,0c0.4,0,1,0.1,1.7,0.2
      c0.1,0,0.2,0,0.3,0c0.4,0,1,0.1,1.7,0.2h0.2c0.2,0,0.3,0,0.4,0.1c0.9,0,1.7,0.1,2.4,0.3c0.3,0,0.6,0.1,1,0.1c0.7,0.1,1.4,0.2,2,0.3
      c0.3,0,1.5,0.2,1.8,0.3c0.8,0.1,1.6,0.3,2.6,0.5c0.1,0,1.1,0.2,1.4,0.2c0.7,0.1,1.3,0.2,1.7,0.3l0.3,0.1h0.1c0.5,0.1,1,0.2,1.5,0.3
      l0.3,0.1c0.7,0.1,1.3,0.2,1.7,0.3l0.3,0.1h0.1c0.5,0.1,1,0.2,1.5,0.3l0.3,0.1l0.6,0.1l0.7,0.2c0.2,0,0.3,0.1,0.5,0.1
      c0.5,0.1,1,0.2,1.5,0.4l0.2,0.1h0.1l0.2,0.1c0.5,0.1,0.9,0.2,1.4,0.4c0,0,0.5,0.2,0.6,0.2l0.7,0.1l0.8,0.3l0.2,0.1
      c0.5,0.1,0.9,0.2,1.4,0.4c0.8,0.2,1.4,0.4,2.1,0.7l1.8,0.6c0.2,0.1,0.5,0.2,0.7,0.2c0.4,0.1,0.8,0.2,1.2,0.4l1.8,0.6
      c0.4,0.1,0.9,0.3,1.4,0.5c0.2,0.1,0.4,0.1,0.5,0.2c0.6,0.2,1.5,0.5,2.4,0.9c0.2,0.1,0.5,0.2,0.7,0.3s0.4,0.1,0.5,0.2
      c0.5,0.2,1,0.4,1.6,0.6l0.3,0.1c0.9,0.3,1.6,0.6,2.2,0.9l0.2,0.1c0.9,0.3,1.7,0.7,2.6,1.2c0.1,0,0.2,0.1,0.2,0.1
      c0.3,0.1,0.7,0.3,1,0.4l0.3,0.1l0.3,0.1l0.2,0.1c0.4,0.2,1,0.4,1.7,0.8l1.6,0.8c0.2,0.1,0.4,0.2,0.5,0.2c0.4,0.2,0.8,0.4,1.2,0.6
      l1.8,0.9c0.4,0.2,0.8,0.4,1.2,0.6c0.2,0.1,0.3,0.2,0.5,0.3c0.5,0.2,1,0.5,1.5,0.8c0.1,0.1,0.2,0.1,0.4,0.2c0.8,0.4,1.4,0.8,2,1.1
      c0.4,0.2,0.7,0.4,1.1,0.6c0.1,0.1,0.2,0.1,0.4,0.2l0.3,0.2l0.3,0.2c0.1,0.1,0.3,0.2,0.4,0.2c0.4,0.2,0.8,0.4,1.2,0.7l0.2,0.1
      l0.2,0.1c0.1,0.1,0.3,0.2,0.4,0.2c0.4,0.2,0.8,0.5,1.2,0.7c0.6,0.3,1.2,0.7,1.8,1.2c0.2,0.2,0.6,0.4,0.8,0.5l0.3,0.2l0.3,0.2
      c0.3,0.2,0.7,0.4,1,0.7l0.1,0.1l0.3,0.2l2.2,1.5c0.4,0.2,0.7,0.5,1.1,0.7l0.2,0.2l0.1,0.1l0.2,0.1c0.6,0.4,1.3,0.9,2.1,1.5
      c0.2,0.1,0.4,0.3,0.6,0.4l0.2,0.2l0.1,0.1l0.2,0.1c0.5,0.3,0.9,0.6,1.4,1c0.1,0.1,0.3,0.2,0.4,0.3l0.3,0.2l1.9,1.5
      c0.2,0.1,0.3,0.3,0.5,0.4c0.4,0.3,0.8,0.6,1.2,0.9c0.2,0.1,1.1,0.8,1.3,1.1l2.3,1.9l0.2,0.2c0.1,0.1,0.7,0.6,0.7,0.6
      c0.4,0.4,0.9,0.8,1.3,1.2c0.2,0.2,0.4,0.3,0.5,0.5c0.6,0.5,1.2,1,1.6,1.4c0.3,0.3,0.7,0.6,1,0.9c0.3,0.2,0.5,0.5,0.8,0.7l0.3,0.2
      l0.1,0.1c0.3,0.3,0.6,0.5,0.8,0.7c0.6,0.6,1.2,1.1,1.7,1.6c0.4,0.4,0.7,0.7,1.1,1l0.2,0.2l0.2,0.2c15.9,15.9,28.3,34.5,37,55.1
      c8.5,20.8,12.9,42.7,12.9,65.1c-0.4,46.1-18.3,88.9-50.2,120.8c-32.1,32.1-74.8,49.8-120.2,49.8H456V1090z"/>
  </g>
  <g id="Cloud">
  	<path d="M1080,687.9C1075.7,519.4,937.6,384,768,384S460.3,519.4,456.1,687.9H456c-128.1,0-232,103.9-232,231.9
  		s103.9,231.9,232,231.9h624c6.7,0,13.3-0.3,19.8-0.8c118.8-10,212.2-109.7,212.2-231.1C1312,791.8,1208.1,687.9,1080,687.9z
  		 M1193.1,1032.9c-30.2,30.2-70.4,46.9-113.1,46.9H456c-42.7,0-82.9-16.6-113.1-46.9c-30.3-30.2-46.9-70.4-46.9-113.1
  		s16.6-82.9,46.9-113.1c30.2-30.3,70.4-46.9,113.1-46.9h3c16.2,0.3,31.7,3,46.4,7.8c14.6,4.8,28.4,11.5,40.8,20
  		c-10.4-25.1-16.7-52.3-18-80.9h-0.6l0.4-17.2c1.6-62.8,27.2-121.6,72.3-165.5c45.1-43.8,104.7-68,167.7-68s122.6,24.2,167.7,68.3
  		c45,44,70.7,102.7,72.3,165.5l0.2,9.5c-38.8,12.6-73,35.1-99.8,64.6c-12.9,14.2-12.3,36.1,1.2,49.6c7,7,16.3,10.5,25.5,10.5
  		c9.8,0,19.5-3.9,26.6-11.8c2.6-2.9,5.4-5.7,8.2-8.4c29-27.6,67.6-43.3,107.7-43.9h7.4c0.7,0,1.3,0,2,0.1c0.7,0,1.4,0.1,2.1,0.1
  		c0.6,0,1.3,0.1,1.9,0.1c0.7,0,1.4,0.1,2.1,0.1c0.6,0.1,1.3,0.1,1.9,0.2c0.7,0.1,1.4,0.1,2,0.2c0.6,0.1,1.3,0.1,1.9,0.2
  		c0.7,0.1,1.4,0.2,2,0.2c0.6,0.1,1.3,0.2,1.9,0.3c0.7,0.1,1.3,0.2,2,0.3c0.6,0.1,1.3,0.2,1.9,0.3c0.7,0.1,1.3,0.2,2,0.3
  		c0.6,0.1,1.3,0.2,1.9,0.4c0.7,0.1,1.3,0.3,2,0.4c0.6,0.1,1.3,0.3,1.9,0.4c0.7,0.1,1.3,0.3,2,0.4c0.6,0.1,1.2,0.3,1.9,0.4
  		c0.7,0.2,1.3,0.3,2,0.5c0.6,0.2,1.2,0.3,1.9,0.5c0.7,0.2,1.3,0.4,2,0.5c0.6,0.2,1.2,0.3,1.8,0.5c0.6,0.2,1.3,0.4,1.9,0.6
  		s1.2,0.4,1.8,0.6c0.6,0.2,1.3,0.4,1.9,0.6c0.6,0.2,1.2,0.4,1.8,0.6s1.3,0.5,1.9,0.7s1.2,0.4,1.8,0.7c0.6,0.2,1.3,0.5,1.9,0.7
  		s1.2,0.5,1.8,0.7c0.6,0.3,1.3,0.5,1.9,0.8c0.6,0.2,1.2,0.5,1.7,0.7c0.6,0.3,1.2,0.6,1.9,0.8c0.6,0.3,1.1,0.5,1.7,0.8
  		s1.2,0.6,1.8,0.9c0.6,0.3,1.1,0.5,1.7,0.8s1.2,0.6,1.8,0.9s1.1,0.6,1.7,0.9s1.2,0.7,1.8,1c0.5,0.3,1.1,0.6,1.6,0.9
  		c0.6,0.3,1.2,0.7,1.8,1c0.5,0.3,1.1,0.6,1.6,0.9c0.6,0.4,1.2,0.7,1.8,1.1c0.5,0.3,1.1,0.6,1.6,1c0.6,0.4,1.2,0.8,1.8,1.1
  		c0.5,0.3,1,0.7,1.6,1c0.6,0.4,1.2,0.8,1.8,1.2c0.5,0.3,1,0.7,1.5,1c0.6,0.4,1.2,0.8,1.8,1.3c0.5,0.4,1,0.7,1.5,1.1
  		c0.6,0.4,1.2,0.9,1.8,1.3c0.5,0.4,0.9,0.7,1.4,1.1c0.6,0.5,1.2,0.9,1.8,1.4c0.5,0.4,0.9,0.7,1.4,1.1c0.6,0.5,1.2,1,1.8,1.5
  		c0.4,0.4,0.9,0.7,1.3,1.1c0.6,0.5,1.2,1.1,1.9,1.6c0.4,0.3,0.8,0.7,1.1,1c0.7,0.6,1.4,1.3,2.1,1.9c0.3,0.3,0.6,0.5,0.9,0.8
  		c1,0.9,1.9,1.9,2.9,2.8c15.1,15.1,26.8,32.7,34.8,51.9c7.9,19.2,12.1,39.9,12.1,61.2C1240.6,962.2,1223.4,1002.8,1193.1,1032.9z"/>
  </g>
</svg>