<svg width="1536" height="1536" viewBox="0 0 1536 1536" xmlns="http://www.w3.org/2000/svg">
<defs>
  <style>
    #Flash {
      fill: #FFB200;
    }
    #Sun {
      fill: #FFB200;
    }
    #Sun-fill {
			fill: #FFB200;
			fill-opacity:0.5;
		}
	#Moon {
		 fill: #626262;
		}
	#Moon-fill {
			fill: #626262;
			fill-opacity:0.5;
		}
	#Cloud {
			fill: #9B9B9B;
		}
    #Cloud-fill {
      fill: #CFCFCF;
      fill-opacity:0.5;
    }
	#Cloud-fill-light {
			fill: #F9FCFE;
		}
	#Rain {
			fill: #008FE9;
		}
	#Snow{
			fill: #9B9B9B;
		}
    #Mist{
			fill: #9B9B9B;
		}
  </style>
</defs>
  <g id="Cloud-fill">
  	<path class="st1" d="M456,1090c-45.5,0-88.1-17.7-120.2-49.8c-32.1-32-49.8-74.7-49.8-120.2s17.7-88.1,49.8-120.2
  		c32-32.1,74.7-49.8,120.2-49.8h3.2c23.9,0.4,47.3,5.9,68.7,15.9c-4.7-16-7.7-32.3-9.1-49h-1.5l0.6-27.4
  		c1.7-65.5,28.4-126.7,75.2-172.4c47.1-45.8,109.1-71,174.8-71c3.6,0,7.2,0.1,10.7,0.2h0.2c61.4,2.6,119.5,27.8,163.8,70.8
  		c46.9,45.9,73.7,107.1,75.2,172.4l0.4,17l-7.1,2.3c-36.5,11.9-69.5,33.2-95.5,61.8c-2.3,2.5-4.1,5.4-5.2,8.6v0.1
  		c-3.4,9.4-1,20,6.1,27.1c4.9,4.9,11.4,7.6,18.4,7.6c7.4,0,14.2-3,19.2-8.5c3.1-3.4,6.4-6.7,8.7-8.9c5-4.8,10-9,15.2-12.8
  		c28.4-21.4,63.8-33.4,99.4-34h7.5c0.7,0,1.6,0,2.7,0.1c0.3,0,0.7,0,1,0.1c0.1,0,0.3,0,0.4,0l0,0c0.5,0,1.1,0,1.7,0.1h0.3
  		c0.7,0,1.3,0,1.7,0.1h0.3h0.6l0.7,0.1c0.1,0,0.2,0,0.3,0c0.4,0,0.9,0.1,1.6,0.2c0.1,0,0.2,0,0.3,0c0.4,0,1,0.1,1.7,0.2
  		c0.1,0,0.2,0,0.3,0c0.4,0,1,0.1,1.7,0.2h0.2c0.2,0,0.3,0,0.4,0.1c0.9,0,1.7,0.1,2.4,0.3c0.3,0,0.6,0.1,1,0.1c0.7,0.1,1.4,0.2,2,0.3
  		c0.3,0,1.5,0.2,1.8,0.3c0.8,0.1,1.6,0.3,2.6,0.5c0.1,0,1.1,0.2,1.4,0.2c0.7,0.1,1.3,0.2,1.7,0.3l0.3,0.1h0.1c0.5,0.1,1,0.2,1.5,0.3
  		l0.3,0.1c0.7,0.1,1.3,0.2,1.7,0.3l0.3,0.1h0.1c0.5,0.1,1,0.2,1.5,0.3l0.3,0.1l0.6,0.1l0.7,0.2c0.2,0,0.3,0.1,0.5,0.1
  		c0.5,0.1,1,0.2,1.5,0.4l0.2,0.1h0.1l0.2,0.1c0.5,0.1,0.9,0.2,1.4,0.4c0,0,0.5,0.2,0.6,0.2l0.7,0.1l0.8,0.3l0.2,0.1
  		c0.5,0.1,0.9,0.2,1.4,0.4c0.8,0.2,1.4,0.4,2.1,0.7l1.8,0.6c0.2,0.1,0.5,0.2,0.7,0.2c0.4,0.1,0.8,0.2,1.2,0.4l1.8,0.6
  		c0.4,0.1,0.9,0.3,1.4,0.5c0.2,0.1,0.4,0.1,0.5,0.2c0.6,0.2,1.5,0.5,2.4,0.9c0.2,0.1,0.5,0.2,0.7,0.3s0.4,0.1,0.5,0.2
  		c0.5,0.2,1,0.4,1.6,0.6l0.3,0.1c0.9,0.3,1.6,0.6,2.2,0.9l0.2,0.1c0.9,0.3,1.7,0.7,2.6,1.2c0.1,0,0.2,0.1,0.2,0.1
  		c0.3,0.1,0.7,0.3,1,0.4l0.3,0.1l0.3,0.1l0.2,0.1c0.4,0.2,1,0.4,1.7,0.8l1.6,0.8c0.2,0.1,0.4,0.2,0.5,0.2c0.4,0.2,0.8,0.4,1.2,0.6
  		l1.8,0.9c0.4,0.2,0.8,0.4,1.2,0.6c0.2,0.1,0.3,0.2,0.5,0.3c0.5,0.2,1,0.5,1.5,0.8c0.1,0.1,0.2,0.1,0.4,0.2c0.8,0.4,1.4,0.8,2,1.1
  		c0.4,0.2,0.7,0.4,1.1,0.6c0.1,0.1,0.2,0.1,0.4,0.2l0.3,0.2l0.3,0.2c0.1,0.1,0.3,0.2,0.4,0.2c0.4,0.2,0.8,0.4,1.2,0.7l0.2,0.1
  		l0.2,0.1c0.1,0.1,0.3,0.2,0.4,0.2c0.4,0.2,0.8,0.5,1.2,0.7c0.6,0.3,1.2,0.7,1.8,1.2c0.2,0.2,0.6,0.4,0.8,0.5l0.3,0.2l0.3,0.2
  		c0.3,0.2,0.7,0.4,1,0.7l0.1,0.1l0.3,0.2l2.2,1.5c0.4,0.2,0.7,0.5,1.1,0.7l0.2,0.2l0.1,0.1l0.2,0.1c0.6,0.4,1.3,0.9,2.1,1.5
  		c0.2,0.1,0.4,0.3,0.6,0.4l0.2,0.2l0.1,0.1l0.2,0.1c0.5,0.3,0.9,0.6,1.4,1c0.1,0.1,0.3,0.2,0.4,0.3l0.3,0.2l1.9,1.5
  		c0.2,0.1,0.3,0.3,0.5,0.4c0.4,0.3,0.8,0.6,1.2,0.9c0.2,0.1,1.1,0.8,1.3,1.1l2.3,1.9l0.2,0.2c0.1,0.1,0.7,0.6,0.7,0.6
  		c0.4,0.4,0.9,0.8,1.3,1.2c0.2,0.2,0.4,0.3,0.5,0.5c0.6,0.5,1.2,1,1.6,1.4c0.3,0.3,0.7,0.6,1,0.9c0.3,0.2,0.5,0.5,0.8,0.7l0.3,0.2
  		l0.1,0.1c0.3,0.3,0.6,0.5,0.8,0.7c0.6,0.6,1.2,1.1,1.7,1.6c0.4,0.4,0.7,0.7,1.1,1l0.2,0.2l0.2,0.2c15.9,15.9,28.3,34.5,37,55.1
  		c8.5,20.8,12.9,42.7,12.9,65.1c-0.4,46.1-18.3,88.9-50.2,120.8c-32.1,32.1-74.8,49.8-120.2,49.8H456V1090z"/>
  </g>
  <g id="Cloud">
  	<path class="st2" d="M1080,687.9C1075.7,519.4,937.6,384,768,384S460.3,519.4,456.1,687.9H456c-128.1,0-232,103.9-232,231.9
  		c0,125.3,99.6,227.5,224,231.7v-71.9c-39.7-1.9-76.8-18.3-105.1-46.7c-30.3-30.2-46.9-70.4-46.9-113.1s16.6-82.9,46.9-113.1
  		c30.2-30.3,70.4-46.9,113.1-46.9h3c16.2,0.3,31.7,3,46.4,7.8c14.6,4.8,28.4,11.5,40.8,20c-10.4-25.1-16.7-52.3-18-80.9h-0.6
  		l0.4-17.2c1.6-62.8,27.2-121.6,72.3-165.5c45.1-43.8,104.7-68,167.7-68s122.6,24.2,167.7,68.3c45,44,70.7,102.7,72.3,165.5l0.2,9.5
  		c-38.8,12.6-73,35.1-99.8,64.6c-12.9,14.2-12.3,36.1,1.2,49.6c7,7,16.3,10.5,25.5,10.5c9.8,0,19.5-3.9,26.6-11.8
  		c2.6-2.9,5.4-5.7,8.2-8.4c29-27.6,67.6-43.3,107.7-43.9h7.4c0.7,0,1.3,0,2,0.1c0.7,0,1.4,0.1,2.1,0.1c0.6,0,1.3,0.1,1.9,0.1
  		c0.7,0,1.4,0.1,2.1,0.1c0.6,0.1,1.3,0.1,1.9,0.2c0.7,0.1,1.4,0.1,2,0.2c0.6,0.1,1.3,0.1,1.9,0.2c0.7,0.1,1.4,0.2,2,0.2
  		c0.6,0.1,1.3,0.2,1.9,0.3c0.7,0.1,1.3,0.2,2,0.3c0.6,0.1,1.3,0.2,1.9,0.3c0.7,0.1,1.3,0.2,2,0.3c0.6,0.1,1.3,0.2,1.9,0.4
  		c0.7,0.1,1.3,0.3,2,0.4c0.6,0.1,1.3,0.3,1.9,0.4c0.7,0.1,1.3,0.3,2,0.4c0.6,0.1,1.2,0.3,1.9,0.4c0.7,0.2,1.3,0.3,2,0.5
  		c0.6,0.2,1.2,0.3,1.9,0.5c0.7,0.2,1.3,0.4,2,0.5c0.6,0.2,1.2,0.3,1.8,0.5c0.6,0.2,1.3,0.4,1.9,0.6s1.2,0.4,1.8,0.6
  		c0.6,0.2,1.3,0.4,1.9,0.6c0.6,0.2,1.2,0.4,1.8,0.6s1.3,0.5,1.9,0.7s1.2,0.4,1.8,0.7c0.6,0.2,1.3,0.5,1.9,0.7s1.2,0.5,1.8,0.7
  		c0.6,0.3,1.3,0.5,1.9,0.8c0.6,0.2,1.2,0.5,1.7,0.7c0.6,0.3,1.2,0.6,1.9,0.8c0.6,0.3,1.1,0.5,1.7,0.8s1.2,0.6,1.8,0.9
  		c0.6,0.3,1.1,0.5,1.7,0.8s1.2,0.6,1.8,0.9s1.1,0.6,1.7,0.9s1.2,0.7,1.8,1c0.5,0.3,1.1,0.6,1.6,0.9c0.6,0.3,1.2,0.7,1.8,1
  		c0.5,0.3,1.1,0.6,1.6,0.9c0.6,0.4,1.2,0.7,1.8,1.1c0.5,0.3,1.1,0.6,1.6,1c0.6,0.4,1.2,0.8,1.8,1.1c0.5,0.3,1,0.7,1.6,1
  		c0.6,0.4,1.2,0.8,1.8,1.2c0.5,0.3,1,0.7,1.5,1c0.6,0.4,1.2,0.8,1.8,1.3c0.5,0.4,1,0.7,1.5,1.1c0.6,0.4,1.2,0.9,1.8,1.3
  		c0.5,0.4,0.9,0.7,1.4,1.1c0.6,0.5,1.2,0.9,1.8,1.4c0.5,0.4,0.9,0.7,1.4,1.1c0.6,0.5,1.2,1,1.8,1.5c0.4,0.4,0.9,0.7,1.3,1.1
  		c0.6,0.5,1.2,1.1,1.9,1.6c0.4,0.3,0.8,0.7,1.1,1c0.7,0.6,1.4,1.3,2.1,1.9c0.3,0.3,0.6,0.5,0.9,0.8c1,0.9,1.9,1.9,2.9,2.8
  		c15.1,15.1,26.8,32.7,34.8,51.9c7.9,19.2,12.1,39.9,12.1,61.2c0,42.8-17.2,83.4-47.5,113.5c-26.4,26.4-60.4,42.5-97.1,46.1v72.2
  		c1.3-0.1,2.5-0.2,3.8-0.3c118.8-10,212.2-109.7,212.2-231.1C1312,791.8,1208.1,687.9,1080,687.9z"/>
  </g>
  <g id="Snow">
  	<path d="M844,1224L844,1224c-9.5,0-18.7,3.8-25.5,10.5c-6.7,6.7-10.5,15.9-10.5,25.5s3.8,18.7,10.5,25.5
  		c6.7,6.7,15.9,10.5,25.5,10.5l0,0c9.5,0,18.7-3.8,25.5-10.5c6.7-6.7,10.5-15.9,10.5-25.5s-3.8-18.7-10.5-25.5
  		C862.7,1227.8,853.5,1224,844,1224L844,1224z"/>
  	<path d="M844,1080L844,1080c-9.5,0-18.7,3.8-25.5,10.5c-6.7,6.7-10.5,15.9-10.5,25.5s3.8,18.7,10.5,25.5
  		c6.7,6.7,15.9,10.5,25.5,10.5l0,0c9.5,0,18.7-3.8,25.5-10.5c6.7-6.7,10.5-15.9,10.5-25.5s-3.8-18.7-10.5-25.5
  		C862.7,1083.8,853.5,1080,844,1080L844,1080z"/>
  	<path d="M988,1080L988,1080c-9.5,0-18.7,3.8-25.5,10.5c-6.7,6.7-10.5,15.9-10.5,25.5s3.8,18.7,10.5,25.5
  		c6.7,6.7,15.9,10.5,25.5,10.5l0,0c9.5,0,18.7-3.8,25.5-10.5c6.7-6.7,10.5-15.9,10.5-25.5s-3.8-18.7-10.5-25.5
  		C1006.7,1083.8,997.5,1080,988,1080L988,1080z"/>
  	<path d="M916,936L916,936c-9.5,0-18.7,3.8-25.5,10.5c-6.7,6.7-10.5,15.9-10.5,25.5s3.8,18.7,10.5,25.5c6.7,6.7,15.9,10.5,25.5,10.5
  		l0,0c9.5,0,18.7-3.8,25.5-10.5c6.7-6.7,10.5-15.9,10.5-25.5s-3.8-18.7-10.5-25.5C934.7,939.8,925.5,936,916,936L916,936z"/>
  	<path d="M916,1368L916,1368c-9.5,0-18.7,3.8-25.5,10.5c-6.7,6.7-10.5,15.9-10.5,25.5s3.8,18.7,10.5,25.5
  		c6.7,6.7,15.9,10.5,25.5,10.5l0,0c9.5,0,18.7-3.8,25.5-10.5c6.7-6.7,10.5-15.9,10.5-25.5s-3.8-18.7-10.5-25.5
  		C934.7,1371.8,925.5,1368,916,1368L916,1368z"/>
  	<path d="M988,1223L988,1223c-9.5,0-18.7,3.8-25.5,10.5c-6.7,6.7-10.5,15.9-10.5,25.5s3.8,18.7,10.5,25.5
  		c6.7,6.7,15.9,10.5,25.5,10.5l0,0c9.5,0,18.7-3.8,25.5-10.5c6.7-6.7,10.5-15.9,10.5-25.5s-3.8-18.7-10.5-25.5
  		C1006.7,1226.8,997.5,1223,988,1223L988,1223z"/>
    </g>
    <g id="Rain">
  	<path d="M556,1440L556,1440c-19.9,0-36-16.1-36-36v-72c0-19.9,16.1-36,36-36l0,0c19.9,0,36,16.1,36,36v72
  		C592,1423.9,575.9,1440,556,1440z"/>
  	<path d="M700,1368L700,1368c-19.9,0-36-16.1-36-36v-72c0-19.9,16.1-36,36-36l0,0c19.9,0,36,16.1,36,36v72
  		C736,1351.9,719.9,1368,700,1368z"/>
  	<path d="M700,1152L700,1152c-19.9,0-36-16.1-36-36V972c0-19.9,16.1-36,36-36l0,0c19.9,0,36,16.1,36,36v144
  		C736,1135.9,719.9,1152,700,1152z"/>
  	<path d="M556,1224L556,1224c-19.9,0-36-16.1-36-36V972c0-19.9,16.1-36,36-36l0,0c19.9,0,36,16.1,36,36v216
  		C592,1207.9,575.9,1224,556,1224z"/>
  </g>
  <g id="Sun-fill">
  	<g>
  		<path class="st4" d="M456.4,680.3c5.5-116.5,75.1-216.2,174.4-264.9C609.5,405.4,586.2,400,562,400c-42.7,0-82.9,16.6-113.1,47
  			c-30.3,30.2-46.9,70.4-46.9,113.1s16.6,82.9,46.8,113.2C451.3,675.7,453.8,678,456.4,680.3z"/>
  	</g>
  </g>
  <g id="Sun">
  	<path class="st1" d="M458.1,687.9c0.1-2.4,0.2-4.7,0.3-7.1c0,0.4,0,0.8-0.1,1.2c-3.3-2.8-6.4-5.7-9.5-8.7
  		C418.6,643,402,602.8,402,560.1s16.6-82.9,46.9-113.1c30.2-30.4,70.4-47,113.1-47c24.7,0,48.5,5.6,70.1,16.1
  		c26.7-13.2,55.6-22.7,85.9-27.8c-41.2-37.5-96-60.2-156-60.2c-128.1,0-232,103.9-232,232c0,53.4,18.1,102.6,48.4,141.8
  		c24.8-9.1,51.7-14,79.6-14L458.1,687.9L458.1,687.9z"/>
  	<path class="st1" d="M596,100c0-19.9-16.1-36-36-36l0,0c-19.9,0-36,16.1-36,36v120c0,19.9,16.1,36,36,36l0,0c19.9,0,36-16.1,36-36
  		V100z"/>
  	<path class="st1" d="M256,560.1L256,560.1c0-19.8-16.2-36-36-36H100c-19.8,0-36,16.2-36,36l0,0c0,19.8,16.2,36,36,36h120
  		C239.8,596.1,256,579.9,256,560.1z"/>
  	<path class="st1" d="M850.1,320.8l60.6-60.6c14-14,14-36.9,0-50.9l0,0c-14-14-36.9-14-50.9,0L756.9,312.2c3.7-0.1,7.4-0.2,11.1-0.2
  		C795.9,312,823.4,315,850.1,320.8z"/>
  	<path class="st1" d="M294.1,345c14,14,36.9,14,50.9,0l0,0c14-14,14-36.9,0-50.9l-84.9-84.9c-14-14-36.9-14-50.9,0l0,0
  		c-14,14-14,36.9,0,50.9L294.1,345z"/>
  </g>
</svg>