<svg width="1536" height="1536" viewBox="0 0 1536 1536" xmlns="http://www.w3.org/2000/svg">
<defs>
  <style>
    #Flash {
      fill: #FFB200;
    }
    #Sun {
      fill: #FFB200;
    }
    #Sun-fill {
			fill: #FFB200;
			fill-opacity:0.5;
		}
	#Moon {
		 fill: #626262;
		}
	#Moon-fill {
			fill: #626262;
			fill-opacity:0.5;
		}
	#Cloud {
			fill: #9B9B9B;
		}
    #Cloud-fill {
      fill: #CFCFCF;
      fill-opacity:0.5;
    }
	#Cloud-fill-light {
			fill: #F9FCFE;
		}
	#Rain {
			fill: #008FE9;
		}
	#Snow{
			fill: #9B9B9B;
		}
    #Mist{
			fill: #9B9B9B;
		}
  </style>
</defs>
  <g id="Mist">
  	<path d="M1072,708L1072,708c0,19.9-16.1,36-36,36H340c-19.9,0-36-16.1-36-36l0,0c0-19.9,16.1-36,36-36h696
  		C1055.9,672,1072,688.1,1072,708z"/>
  	<path d="M1232,564L1232,564c0,19.9-16.1,36-36,36H500c-19.9,0-36-16.1-36-36l0,0c0-19.9,16.1-36,36-36h696
  		C1215.9,528,1232,544.1,1232,564z"/>
  	<path d="M1232,852L1232,852c0,19.9-16.1,36-36,36H500c-19.9,0-36-16.1-36-36l0,0c0-19.9,16.1-36,36-36h696
  		C1215.9,816,1232,832.1,1232,852z"/>
  	<path d="M1072,996L1072,996c0,19.9-16.1,36-36,36H340c-19.9,0-36-16.1-36-36l0,0c0-19.9,16.1-36,36-36h696
  		C1055.9,960,1072,976.1,1072,996z"/>
  </g>
</svg>