<svg width="1536" height="1536" viewBox="0 0 1536 1536" xmlns="http://www.w3.org/2000/svg">
<defs>
  <style>
    #Flash {
      fill: #FFB200;
    }
    #Sun {
      fill: #FFB200;
    }
    #Sun-fill {
			fill: #FFB200;
			fill-opacity:0.5;
		}
	#Moon {
		 fill: #626262;
		}
	#Moon-fill {
			fill: #626262;
			fill-opacity:0.5;
		}
	#Cloud {
			fill: #9B9B9B;
		}
    #Cloud-fill {
      fill: #CFCFCF;
      fill-opacity:0.5;
    }
	#Cloud-fill-light {
			fill: #F9FCFE;
		}
	#Rain {
			fill: #008FE9;
		}
	#Snow{
			fill: #9B9B9B;
		}
    #Mist{
			fill: #9B9B9B;
		}
  </style>
</defs>
  <g id="Cloud-fill">
  	<path class="st1" d="M456,1090c-45.5,0-88.1-17.7-120.2-49.8c-32.1-32-49.8-74.7-49.8-120.2s17.7-88.1,49.8-120.2
  		c32-32.1,74.7-49.8,120.2-49.8h3.2c23.9,0.4,47.3,5.9,68.7,15.9c-4.7-16-7.7-32.3-9.1-49h-1.5l0.6-27.4
  		c1.7-65.5,28.4-126.7,75.2-172.4c47.1-45.8,109.1-71,174.8-71c3.6,0,7.2,0.1,10.7,0.2h0.2c61.4,2.6,119.5,27.8,163.8,70.8
  		c46.9,45.9,73.7,107.1,75.2,172.4l0.4,17l-7.1,2.3c-36.5,11.9-69.5,33.2-95.5,61.8c-2.3,2.5-4.1,5.4-5.2,8.6v0.1
  		c-3.4,9.4-1,20,6.1,27.1c4.9,4.9,11.4,7.6,18.4,7.6c7.4,0,14.2-3,19.2-8.5c3.1-3.4,6.4-6.7,8.7-8.9c5-4.8,10-9,15.2-12.8
  		c28.4-21.4,63.8-33.4,99.4-34h7.5c0.7,0,1.6,0,2.7,0.1c0.3,0,0.7,0,1,0.1c0.1,0,0.3,0,0.4,0l0,0c0.5,0,1.1,0,1.7,0.1h0.3
  		c0.7,0,1.3,0,1.7,0.1h0.3h0.6l0.7,0.1c0.1,0,0.2,0,0.3,0c0.4,0,0.9,0.1,1.6,0.2c0.1,0,0.2,0,0.3,0c0.4,0,1,0.1,1.7,0.2
  		c0.1,0,0.2,0,0.3,0c0.4,0,1,0.1,1.7,0.2h0.2c0.2,0,0.3,0,0.4,0.1c0.9,0,1.7,0.1,2.4,0.3c0.3,0,0.6,0.1,1,0.1c0.7,0.1,1.4,0.2,2,0.3
  		c0.3,0,1.5,0.2,1.8,0.3c0.8,0.1,1.6,0.3,2.6,0.5c0.1,0,1.1,0.2,1.4,0.2c0.7,0.1,1.3,0.2,1.7,0.3l0.3,0.1h0.1c0.5,0.1,1,0.2,1.5,0.3
  		l0.3,0.1c0.7,0.1,1.3,0.2,1.7,0.3l0.3,0.1h0.1c0.5,0.1,1,0.2,1.5,0.3l0.3,0.1l0.6,0.1l0.7,0.2c0.2,0,0.3,0.1,0.5,0.1
  		c0.5,0.1,1,0.2,1.5,0.4l0.2,0.1h0.1l0.2,0.1c0.5,0.1,0.9,0.2,1.4,0.4c0,0,0.5,0.2,0.6,0.2l0.7,0.1l0.8,0.3l0.2,0.1
  		c0.5,0.1,0.9,0.2,1.4,0.4c0.8,0.2,1.4,0.4,2.1,0.7l1.8,0.6c0.2,0.1,0.5,0.2,0.7,0.2c0.4,0.1,0.8,0.2,1.2,0.4l1.8,0.6
  		c0.4,0.1,0.9,0.3,1.4,0.5c0.2,0.1,0.4,0.1,0.5,0.2c0.6,0.2,1.5,0.5,2.4,0.9c0.2,0.1,0.5,0.2,0.7,0.3s0.4,0.1,0.5,0.2
  		c0.5,0.2,1,0.4,1.6,0.6l0.3,0.1c0.9,0.3,1.6,0.6,2.2,0.9l0.2,0.1c0.9,0.3,1.7,0.7,2.6,1.2c0.1,0,0.2,0.1,0.2,0.1
  		c0.3,0.1,0.7,0.3,1,0.4l0.3,0.1l0.3,0.1l0.2,0.1c0.4,0.2,1,0.4,1.7,0.8l1.6,0.8c0.2,0.1,0.4,0.2,0.5,0.2c0.4,0.2,0.8,0.4,1.2,0.6
  		l1.8,0.9c0.4,0.2,0.8,0.4,1.2,0.6c0.2,0.1,0.3,0.2,0.5,0.3c0.5,0.2,1,0.5,1.5,0.8c0.1,0.1,0.2,0.1,0.4,0.2c0.8,0.4,1.4,0.8,2,1.1
  		c0.4,0.2,0.7,0.4,1.1,0.6c0.1,0.1,0.2,0.1,0.4,0.2l0.3,0.2l0.3,0.2c0.1,0.1,0.3,0.2,0.4,0.2c0.4,0.2,0.8,0.4,1.2,0.7l0.2,0.1
  		l0.2,0.1c0.1,0.1,0.3,0.2,0.4,0.2c0.4,0.2,0.8,0.5,1.2,0.7c0.6,0.3,1.2,0.7,1.8,1.2c0.2,0.2,0.6,0.4,0.8,0.5l0.3,0.2l0.3,0.2
  		c0.3,0.2,0.7,0.4,1,0.7l0.1,0.1l0.3,0.2l2.2,1.5c0.4,0.2,0.7,0.5,1.1,0.7l0.2,0.2l0.1,0.1l0.2,0.1c0.6,0.4,1.3,0.9,2.1,1.5
  		c0.2,0.1,0.4,0.3,0.6,0.4l0.2,0.2l0.1,0.1l0.2,0.1c0.5,0.3,0.9,0.6,1.4,1c0.1,0.1,0.3,0.2,0.4,0.3l0.3,0.2l1.9,1.5
  		c0.2,0.1,0.3,0.3,0.5,0.4c0.4,0.3,0.8,0.6,1.2,0.9c0.2,0.1,1.1,0.8,1.3,1.1l2.3,1.9l0.2,0.2c0.1,0.1,0.7,0.6,0.7,0.6
  		c0.4,0.4,0.9,0.8,1.3,1.2c0.2,0.2,0.4,0.3,0.5,0.5c0.6,0.5,1.2,1,1.6,1.4c0.3,0.3,0.7,0.6,1,0.9c0.3,0.2,0.5,0.5,0.8,0.7l0.3,0.2
  		l0.1,0.1c0.3,0.3,0.6,0.5,0.8,0.7c0.6,0.6,1.2,1.1,1.7,1.6c0.4,0.4,0.7,0.7,1.1,1l0.2,0.2l0.2,0.2c15.9,15.9,28.3,34.5,37,55.1
  		c8.5,20.8,12.9,42.7,12.9,65.1c-0.4,46.1-18.3,88.9-50.2,120.8c-32.1,32.1-74.8,49.8-120.2,49.8H456V1090z"/>
  </g>
  <g id="Cloud">
  	<path d="M1167.2,704.9c-26.9-10.9-56.3-16.9-87.2-16.9h-0.1c-3.7-148.1-110.7-270.7-251.6-298.3c-19.5-3.8-39.7-5.8-60.3-5.8
  		C598.4,384,460.3,519.4,456.1,688H456c-128.1,0-232,104-232,232.1c0,125.4,99.6,227.7,224,231.9v-72.1
  		c-39.7-1.9-76.8-18.3-105.1-46.7C312.6,1003,296,962.8,296,920.1s16.6-82.9,46.9-113.1c30.2-30.3,70.4-46.9,113.1-46.9h3
  		c16.2,0.3,31.7,3,46.4,7.8c14.6,4.8,28.4,11.6,40.8,20.1c-10.4-25.1-16.7-52.3-18-80.9h-0.6l0.4-17.2
  		c1.6-62.8,27.2-121.6,72.2-165.5C645.4,480.2,705,456,768,456c3.5,0,7,0.1,10.5,0.2c59.1,2.5,114.6,26.5,157.2,68
  		c45,44,70.7,102.8,72.2,165.5l0.2,9.5c-38.8,12.6-73,35.1-99.8,64.6c-3.3,3.6-5.7,7.7-7.2,12c-4.6,12.7-1.7,27.5,8.5,37.6
  		c7,7,16.2,10.5,25.4,10.5c9.8,0,19.5-4,26.6-11.8c2.6-2.9,5.4-5.7,8.2-8.4c4.5-4.3,9.2-8.3,14.2-12c26.9-20.2,59.7-31.5,93.6-32
  		h7.4c0.7,0,1.3,0,2,0.1c0.7,0,1.4,0.1,2.1,0.1c0.6,0,1.3,0.1,1.9,0.1c0.7,0,1.4,0.1,2,0.1c0.7,0.1,1.3,0.1,1.9,0.2
  		c0.7,0.1,1.4,0.1,2,0.2c0.7,0.1,1.3,0.1,1.9,0.2c0.7,0.1,1.3,0.2,2,0.2c0.1,0,0.3,0,0.4,0.1c0.5,0.1,1,0.1,1.5,0.2
  		c0.7,0.1,1.4,0.2,2,0.3s1.3,0.2,1.9,0.3c0.7,0.1,1.3,0.2,2,0.4c0.6,0.1,1.3,0.2,1.9,0.3c0.7,0.1,1.3,0.3,2,0.4
  		c0.6,0.1,1.2,0.3,1.9,0.4c0.7,0.1,1.3,0.3,2,0.4c0.6,0.1,1.2,0.3,1.9,0.4c0.7,0.2,1.3,0.3,2,0.5c0.6,0.2,1.2,0.3,1.8,0.5
  		c0.7,0.2,1.3,0.4,2,0.5c0.6,0.2,1.2,0.3,1.8,0.5c0.7,0.2,1.3,0.4,1.9,0.6c0.6,0.2,1.2,0.4,1.8,0.6s1.3,0.4,1.9,0.6
  		c0.6,0.2,1.2,0.4,1.8,0.6c0.6,0.2,1.3,0.5,1.9,0.7s1.2,0.4,1.8,0.7c0.6,0.2,1.3,0.5,1.9,0.7s1.2,0.5,1.8,0.7
  		c0.6,0.2,1.2,0.5,1.9,0.8c0.6,0.2,1.2,0.5,1.7,0.8c0.6,0.3,1.2,0.5,1.9,0.8c0.6,0.3,1.2,0.5,1.7,0.8c0.6,0.3,1.2,0.6,1.8,0.9
  		c0.6,0.3,1.1,0.5,1.7,0.8s1.2,0.6,1.8,0.9c0.6,0.3,1.1,0.6,1.7,0.9c0.6,0.3,1.2,0.7,1.8,1c0.6,0.3,1.1,0.6,1.6,0.9
  		c0.6,0.3,1.2,0.7,1.8,1c0.5,0.3,1.1,0.6,1.6,0.9c0.6,0.4,1.2,0.7,1.8,1.1c0.5,0.3,1,0.6,1.6,1s1.2,0.8,1.8,1.1c0.5,0.3,1,0.7,1.6,1
  		c0.6,0.4,1.2,0.8,1.8,1.2c0.5,0.3,1,0.7,1.5,1c0.6,0.4,1.2,0.8,1.8,1.3c0.5,0.3,1,0.7,1.5,1c0.6,0.4,1.2,0.9,1.8,1.3
  		c0.5,0.4,0.9,0.7,1.4,1.1c0.6,0.5,1.2,0.9,1.8,1.4c0.5,0.4,0.9,0.7,1.4,1.1c0.6,0.5,1.2,1,1.8,1.5c0.4,0.4,0.8,0.7,1.3,1.1
  		c0.6,0.5,1.2,1.1,1.9,1.7c0.4,0.3,0.8,0.7,1.1,1c0.7,0.6,1.4,1.3,2.1,1.9c0.3,0.3,0.6,0.5,0.9,0.8c1,0.9,1.9,1.9,2.9,2.8
  		c15.1,15.1,26.8,32.7,34.8,51.9c7.9,19.2,12.1,39.9,12.1,61.3c-0.4,43.3-17,83.5-47.3,113.7c-26.4,26.4-60.4,42.5-97.1,46.1v72.3
  		c120.6-8.2,216-108.8,216-231.5C1312,822.8,1252.1,739.4,1167.2,704.9z"/>
  </g>
  <g id="Snow">
  	<path d="M556,1080L556,1080c-9.5,0-18.7,3.8-25.5,10.5c-6.7,6.7-10.5,15.9-10.5,25.5s3.8,18.7,10.5,25.5
  		c6.7,6.7,15.9,10.5,25.5,10.5l0,0c9.5,0,18.7-3.8,25.5-10.5c6.7-6.7,10.5-15.9,10.5-25.5s-3.8-18.7-10.5-25.5
  		C574.7,1083.8,565.5,1080,556,1080L556,1080z"/>
  	<path d="M700,1224L700,1224c-9.5,0-18.7,3.8-25.5,10.5c-6.7,6.7-10.5,15.9-10.5,25.5s3.8,18.7,10.5,25.5
  		c6.7,6.7,15.9,10.5,25.5,10.5l0,0c9.5,0,18.7-3.8,25.5-10.5c6.7-6.7,10.5-15.9,10.5-25.5s-3.8-18.7-10.5-25.5
  		C718.7,1227.8,709.5,1224,700,1224L700,1224z"/>
  	<path d="M844,1224L844,1224c-9.5,0-18.7,3.8-25.5,10.5c-6.7,6.7-10.5,15.9-10.5,25.5s3.8,18.7,10.5,25.5
  		c6.7,6.7,15.9,10.5,25.5,10.5l0,0c9.5,0,18.7-3.8,25.5-10.5c6.7-6.7,10.5-15.9,10.5-25.5s-3.8-18.7-10.5-25.5
  		C862.7,1227.8,853.5,1224,844,1224L844,1224z"/>
  	<path d="M700,1080L700,1080c-9.5,0-18.7,3.8-25.5,10.5c-6.7,6.7-10.5,15.9-10.5,25.5s3.8,18.7,10.5,25.5
  		c6.7,6.7,15.9,10.5,25.5,10.5l0,0c9.5,0,18.7-3.8,25.5-10.5c6.7-6.7,10.5-15.9,10.5-25.5s-3.8-18.7-10.5-25.5
  		C718.7,1083.8,709.5,1080,700,1080L700,1080z"/>
  	<path d="M844,1080L844,1080c-9.5,0-18.7,3.8-25.5,10.5c-6.7,6.7-10.5,15.9-10.5,25.5s3.8,18.7,10.5,25.5
  		c6.7,6.7,15.9,10.5,25.5,10.5l0,0c9.5,0,18.7-3.8,25.5-10.5c6.7-6.7,10.5-15.9,10.5-25.5s-3.8-18.7-10.5-25.5
  		C862.7,1083.8,853.5,1080,844,1080L844,1080z"/>
  	<path d="M988,1080L988,1080c-9.5,0-18.7,3.8-25.5,10.5c-6.7,6.7-10.5,15.9-10.5,25.5s3.8,18.7,10.5,25.5
  		c6.7,6.7,15.9,10.5,25.5,10.5l0,0c9.5,0,18.7-3.8,25.5-10.5c6.7-6.7,10.5-15.9,10.5-25.5s-3.8-18.7-10.5-25.5
  		C1006.7,1083.8,997.5,1080,988,1080L988,1080z"/>
  	<path d="M628,936L628,936c-9.5,0-18.7,3.8-25.5,10.5c-6.7,6.7-10.5,15.9-10.5,25.5s3.8,18.7,10.5,25.5c6.7,6.7,15.9,10.5,25.5,10.5
  		l0,0c9.5,0,18.7-3.8,25.5-10.5c6.7-6.7,10.5-15.9,10.5-25.5s-3.8-18.7-10.5-25.5C646.7,939.8,637.5,936,628,936L628,936z"/>
  	<path d="M772,936L772,936c-9.5,0-18.7,3.8-25.5,10.5c-6.7,6.7-10.5,15.9-10.5,25.5s3.8,18.7,10.5,25.5c6.7,6.7,15.9,10.5,25.5,10.5
  		l0,0c9.5,0,18.7-3.8,25.5-10.5c6.7-6.7,10.5-15.9,10.5-25.5s-3.8-18.7-10.5-25.5C790.7,939.8,781.5,936,772,936L772,936z"/>
  	<path d="M916,936L916,936c-9.5,0-18.7,3.8-25.5,10.5c-6.7,6.7-10.5,15.9-10.5,25.5s3.8,18.7,10.5,25.5c6.7,6.7,15.9,10.5,25.5,10.5
  		l0,0c9.5,0,18.7-3.8,25.5-10.5c6.7-6.7,10.5-15.9,10.5-25.5s-3.8-18.7-10.5-25.5C934.7,939.8,925.5,936,916,936L916,936z"/>
  	<path d="M556,1223L556,1223c-9.5,0-18.7,3.8-25.5,10.5c-6.7,6.7-10.5,15.9-10.5,25.5s3.8,18.7,10.5,25.5
  		c6.7,6.7,15.9,10.5,25.5,10.5l0,0c9.5,0,18.7-3.8,25.5-10.5c6.7-6.7,10.5-15.9,10.5-25.5s-3.8-18.7-10.5-25.5
  		C574.7,1226.8,565.5,1223,556,1223L556,1223z"/>
  	<path d="M624,1368L624,1368c-9.5,0-18.7,3.8-25.5,10.5c-6.7,6.7-10.5,15.9-10.5,25.5s3.8,18.7,10.5,25.5
  		c6.7,6.7,15.9,10.5,25.5,10.5l0,0c9.5,0,18.7-3.8,25.5-10.5c6.7-6.7,10.5-15.9,10.5-25.5s-3.8-18.7-10.5-25.5
  		C642.7,1371.8,633.5,1368,624,1368L624,1368z"/>
  	<path d="M768,1368L768,1368c-9.5,0-18.7,3.8-25.5,10.5c-6.7,6.7-10.5,15.9-10.5,25.5s3.8,18.7,10.5,25.5
  		c6.7,6.7,15.9,10.5,25.5,10.5l0,0c9.5,0,18.7-3.8,25.5-10.5c6.7-6.7,10.5-15.9,10.5-25.5s-3.8-18.7-10.5-25.5
  		C786.7,1371.8,777.5,1368,768,1368L768,1368z"/>
  	<path d="M912,1368L912,1368c-9.5,0-18.7,3.8-25.5,10.5c-6.7,6.7-10.5,15.9-10.5,25.5s3.8,18.7,10.5,25.5
  		c6.7,6.7,15.9,10.5,25.5,10.5l0,0c9.5,0,18.7-3.8,25.5-10.5c6.7-6.7,10.5-15.9,10.5-25.5s-3.8-18.7-10.5-25.5
  		C930.7,1371.8,921.5,1368,912,1368L912,1368z"/>
  	<path d="M988,1223L988,1223c-9.5,0-18.7,3.8-25.5,10.5c-6.7,6.7-10.5,15.9-10.5,25.5s3.8,18.7,10.5,25.5
  		c6.7,6.7,15.9,10.5,25.5,10.5l0,0c9.5,0,18.7-3.8,25.5-10.5c6.7-6.7,10.5-15.9,10.5-25.5s-3.8-18.7-10.5-25.5
  		C1006.7,1226.8,997.5,1223,988,1223L988,1223z"/>
  </g>
  <path id="Moon-fill" d="M1232,465.9c-93.7,0-170-76.3-170-170c0-27.1,6.2-53.1,18.5-77.1c11.7-22.9,28.8-43.3,49.4-58.8l15.7-11.9
  	l0.3,19.7c1,57.7,24,112.1,65,153.1c39.2,39.2,91.2,62.2,146.5,64.8l19.5,0.9l-12.2,15.3C1332.4,442.5,1284,465.9,1232,465.9z"/>
  <path id="Moon" class="st2" d="M1464,291.9c-21.2,16-46.6,26.8-74.2,30.6c-7.1,1-14.4,1.5-21.8,1.5c-88.2,0-160-71.8-160-160
  	c0-9,0.8-17.9,2.2-26.5c4.6-27.4,16.1-52.4,32.8-73.2c-3.6-0.2-7.3-0.3-11-0.3c-27.6,0-54.4,4.8-79.6,14
  	c-31.4,11.4-60.1,29.7-84.5,54c-43.8,43.8-67.9,102.1-67.9,164s24.1,120.2,67.9,164s102.1,68,164.1,68s120.2-24.1,164.1-68
  	c22.6-22.6,40-49.1,51.5-78c10.8-27,16.4-56.1,16.4-86C1464,294.5,1464,293.2,1464,291.9z M1232,455.9c-88.2,0-160-71.8-160-160
  	c0-52.2,25.2-98.7,64-128c1,60.5,25.1,117.1,67.9,160c41.2,41.2,95.2,65,153.1,67.7C1327.7,432.4,1282.5,455.9,1232,455.9z"/>
</svg>
